<?xml version="1.0" encoding="utf-8"?>
<!-- Generator: Adobe Illustrator 16.0.0, SVG Export Plug-In . SVG Version: 6.00 Build 0)  -->
<!DOCTYPE svg PUBLIC "-//W3C//DTD SVG 1.1//EN" "http://www.w3.org/Graphics/SVG/1.1/DTD/svg11.dtd">
<svg version="1.1" id="图层_1" xmlns="http://www.w3.org/2000/svg" xmlns:xlink="http://www.w3.org/1999/xlink" x="0px" y="0px"
	 width="262px" height="72px" viewBox="0 0 262 72" enable-background="new 0 0 262 72" xml:space="preserve">
<g transform="translate(0,0)">
	<path d="M5.435,9.435L8,12H1V5l2.958,2.958C5.406,6.736,7.277,6,9.32,6c3.458,0,6.424,2.11,7.68,5l-2,1
		c-0.937-2.39-3.129-3.92-5.68-4C7.851,8.053,6.5,8.579,5.435,9.435z"/>
</g>
<g transform="translate(18,0)">
	<path d="M12.565,9.435L10,12h7V5l-2.958,2.958C12.594,6.736,10.723,6,8.68,6C5.221,6,2.256,8.11,1,11l2,1
		c0.937-2.39,3.129-3.92,5.68-4C10.149,8.053,11.5,8.579,12.565,9.435z"/>
</g>
<g transform="translate(36,0)">
	<path d="M14,16H4v-3H1V8.006C1,6.898,1.895,6,2.994,6h12.012C16.107,6,17,6.887,17,8.006V13h-3V16z M6,11h6v3H6V11z M4,2h10v3H4V2z
		 M13,8h2v2h-2V8z"/>
</g>
<g transform="translate(54,0)">
	<path d="M12,2H4C3.45,2,3,2.45,3,3v3c0,0.55,0.45,1,1,1h8c0.55,0,1-0.45,1-1V5h1v3H7v8h2v-6h7V4h-3V3C13,2.45,12.55,2,12,2z"/>
</g>
<g transform="translate(72,0)">
	<path d="M2.27,4.55L7.43,9.7L5,15h2.5l1.64-3.58L13.73,16L15,14.73L3.55,3.27L2.27,4.55L2.27,4.55z M5.82,3l2,2h1.76L9.03,6.21
		l1.71,1.71L12.08,5H16V3H5.82L5.82,3z"/>
</g>
<g transform="translate(90,0)">
	<path d="M13,6.5C13,4.57,11.43,3,9.5,3H4v12h6.25c1.79,0,3.25-1.46,3.25-3.25c0-1.3-0.77-2.41-1.87-2.93C12.46,8.24,13,7.38,13,6.5
		z M9,5c0.83,0,1.5,0.67,1.5,1.5S9.83,8,9,8H7V5H9z M7,13v-3h2.5c0.83,0,1.5,0.67,1.5,1.5S10.33,13,9.5,13H7z"/>
</g>
<g transform="translate(108,0)">
	<polygon points="7,3 7,5 9.58,5 5.92,13 3,13 3,15 11,15 11,13 8.42,13 12.08,5 15,5 15,3 	"/>
</g>
<g transform="translate(126,0)">
	<path d="M9,15c2.76,0,5-2.24,5-5V3h-2v7c0,1.75-1.501,3-3,3s-3-1.242-3-3V3H4v7C4,12.76,6.24,15,9,15z M3,16v2h12v-2H3z"/>
</g>
<g transform="translate(144,0)">
	<path fill="#010101" d="M4.888,6.06c0-0.458,0.097-0.874,0.296-1.252C5.383,4.429,5.66,4.106,6.02,3.84
		c0.36-0.266,0.784-0.472,1.279-0.619C7.794,3.075,8.334,3,8.926,3c0.607,0,1.159,0.083,1.654,0.251
		c0.495,0.168,0.918,0.401,1.271,0.705c0.352,0.3,0.622,0.656,0.813,1.073c0.191,0.413,0.285,0.866,0.285,1.357h-2.258
		c0-0.229-0.038-0.442-0.108-0.638C10.513,5.55,10.4,5.381,10.25,5.243S9.912,4.991,9.688,4.917C9.463,4.837,9.196,4.8,8.889,4.8
		c-0.297,0-0.551,0.034-0.772,0.098c-0.218,0.064-0.397,0.154-0.54,0.27S7.325,5.419,7.254,5.573
		C7.183,5.726,7.145,5.895,7.145,6.067c0,0.36,0.184,0.664,0.552,0.908c0.021,0.014,0.043,0.028,0.065,0.042
		C8.023,7.188,8.5,7.5,9,8H6c0,0-0.786-0.624-0.824-0.691C4.984,6.953,4.888,6.536,4.888,6.06z M16,9H2v2h7.219
		c0.135,0.052,0.3,0.105,0.412,0.154c0.277,0.124,0.496,0.255,0.652,0.382c0.158,0.131,0.264,0.274,0.319,0.424
		c0.056,0.154,0.083,0.326,0.083,0.514c0,0.176-0.034,0.341-0.102,0.491c-0.068,0.154-0.173,0.285-0.312,0.394
		c-0.139,0.108-0.319,0.195-0.532,0.259c-0.218,0.063-0.469,0.094-0.762,0.094c-0.326,0-0.622-0.034-0.889-0.098
		c-0.266-0.064-0.491-0.169-0.679-0.312c-0.188-0.142-0.333-0.33-0.438-0.559C6.867,12.515,6.781,12.17,6.781,12H4.55
		c0,0.252,0.06,0.688,0.177,1.025c0.115,0.337,0.281,0.642,0.487,0.908s0.454,0.495,0.735,0.69c0.281,0.195,0.584,0.36,0.914,0.487
		c0.33,0.131,0.672,0.229,1.035,0.289c0.36,0.063,0.725,0.094,1.084,0.094c0.6,0,1.147-0.068,1.635-0.207
		c0.488-0.139,0.908-0.337,1.253-0.592c0.345-0.259,0.611-0.574,0.802-0.953c0.191-0.379,0.281-0.806,0.281-1.286
		c0-0.45-0.078-0.855-0.232-1.211c-0.037-0.086-0.078-0.168-0.127-0.251L16,11V9z"/>
</g>
<g transform="translate(162,0)">
	<path d="M10,1H8L3.5,13h2l1.12-3h4.75l1.12,3h2L10,1L10,1z M7.38,8L9,3.67L10.62,8H7.38L7.38,8z"/>
</g>
<g transform="translate(180,0)">
	<g>
		<path d="M14.5,8.87c0,0-1.5,1.62-1.5,2.62c0,0.83,0.67,1.5,1.5,1.5s1.5-0.67,1.5-1.5C16,10.5,14.5,8.87,14.5,8.87L14.5,8.87z
			 M12.71,6.79L5.91,0L4.85,1.06l1.59,1.59L2.29,6.79C1.9,7.18,1.9,7.81,2.29,8.2l4.5,4.5C6.99,12.9,7.24,13,7.5,13
			s0.51-0.1,0.71-0.29l4.5-4.5C13.1,7.82,13.1,7.18,12.71,6.79L12.71,6.79z M4.21,7L7.5,3.71L10.79,7H4.21L4.21,7z"/>
	</g>
</g>
<g transform="translate(198,0)">
	<path d="M3,6H1V2h7v2H3V6z M10,4V2h7v4h-2V4H10z M10,14h5v-2h2v4h-7V14z M1,12h2v2h5v2H1V12z M1,8h4V6l3,3l-3,3v-2H1V8z M10,9l3-3
		v2h4v2h-4v2L10,9z"/>
</g>
<g transform="translate(216,0)">
	<path d="M2,16h10v-2H2V16z M12,6H2v2h10V6z M2,2v2h14V2H2z M2,12h14v-2H2V12z"/>
</g>
<g transform="translate(234,0)">
	<path d="M4,14v2h10v-2H4z M4,6v2h10V6H4z M2,12h14v-2H2V12z M2,2v2h14V2H2z"/>
</g>
<g transform="translate(0,18)">
	<path d="M6,16h10v-2H6V16z M2,12h14v-2H2V12z M2,2v2h14V2H2z M6,8h10V6H6V8z"/>
</g>
<g transform="translate(18,18)">
	<path d="M3,2v2h12V2H3L3,2z M5.5,9H8v7h2V9h2.5L9,5.5L5.5,9L5.5,9z"/>
</g>
<g transform="translate(36,18)">
	<path d="M12.5,3H10V0H8v3H5.5L9,6.5L12.5,3L12.5,3z M3,8v2h12V8H3L3,8z M5.5,15H8v3h2v-3h2.5L9,11.5L5.5,15L5.5,15z"/>
</g>
<g transform="translate(54,18)">
	<path d="M12.5,9H10V2H8v7H5.5L9,12.5L12.5,9L12.5,9z M3,14v2h12v-2H3L3,14z"/>
</g>
<g transform="translate(72,18)">
	<path d="M16,3H2v2h14V3z M2,15h4v-2H2V15z M13.5,8H2v2h11.75c0.83,0,1.5,0.67,1.5,1.5s-0.67,1.5-1.5,1.5H11v-2l-3,3l3,3v-2h2.5
		c1.93,0,3.5-1.57,3.5-3.5S15.43,8,13.5,8z"/>
</g>
<g transform="translate(90,18)">
	<path d="M2,3v1l6,6v5l2-1v-4l6-6V3H2z M6,6h6L9,9L6,6z"/>
</g>
<g transform="translate(108,18)">
	<polygon points="14,2 4,2 4,3.8 9.5,9 4,14.2 4,16 14,16 14,14 7.1,14 12,9 7.1,4 14,4 	"/>
</g>
<g transform="translate(126,18)">
	<polygon points="5,7 9,11 13,7 	"/>
</g>
<g transform="translate(144,18)">
	<polygon points="7,13 11,9 7,5 	"/>
</g>
<g transform="translate(162,18)">
	<path d="M1.9,9C1.9,7.84,2.84,6.9,4,6.9h4V5H4C1.79,5,0,6.79,0,9s1.79,4,4,4h4v-1.9H4C2.84,11.1,1.9,10.16,1.9,9L1.9,9z M14,5h-4
		v1.9h4c1.16,0,2.1,0.94,2.1,2.1s-0.939,2.1-2.1,2.1h-4V13h4c2.21,0,4-1.79,4-4S16.21,5,14,5L14,5z M6,10h6V8H6V10L6,10z"/>
</g>
<g transform="translate(180,18)">
	<path d="M16,1c0.55,0,1,0.45,1,1v14c0,0.55-0.45,1-1,1H2c-0.55,0-1-0.45-1-1V2c0-0.55,0.45-1,1-1H16z M3,3v12h12V3H3z M7,13H5V8h2
		V13L7,13z M10,13H8V5h2V13L10,13z M13,13h-2V9h2V13L13,13z"/>
</g>
<g transform="translate(198,18)">
	<g>
		<path fill="none" stroke="#000000" d="M1.5,3.5h15v12h-15V3.5z"/>
		<path d="M6,8h1v7H6V8z"/>
		<path fill="#D8D8D8" d="M2,4h14v3H2V4z"/>
		<path d="M2,7h14v1H2V7z M2,11h14v1H2V11z"/>
	</g>
</g>
<g transform="translate(216,18)">
	<path d="M4,7.5C3.17,7.5,2.5,8.17,2.5,9s0.67,1.5,1.5,1.5S5.5,9.83,5.5,9S4.83,7.5,4,7.5L4,7.5z M14,7.5c-0.83,0-1.5,0.67-1.5,1.5
		s0.67,1.5,1.5,1.5s1.5-0.67,1.5-1.5S14.83,7.5,14,7.5L14,7.5z M9,7.5C8.17,7.5,7.5,8.17,7.5,9s0.67,1.5,1.5,1.5s1.5-0.67,1.5-1.5
		S9.83,7.5,9,7.5L9,7.5z"/>
</g>
<g transform="translate(234,18)">
	<path d="M10,8V4H8v4H4v2h4v4h2v-4h4V8H10z"/>
</g>
<g transform="translate(0,36)">
	<path d="M2,2v14h14V2H2L2,2z M8,14H4v-4h4V14L8,14z M8,8H4V4h4V8L8,8z M14,14h-4v-4h4V14L14,14z M14,8h-4V4h4V8L14,8z"/>
</g>
<g transform="translate(18,36)">
	<g transform="translate(2 2)">
		<path opacity="0.54" enable-background="new    " d="M0,14h2v-2H0V14L0,14z M2,3H0v2h2V3L2,3z M3,14h2v-2H3V14L3,14z M11,0H9v2h2
			V0L11,0z M2,0H0v2h2V0L2,0z M5,0H3v2h2V0L5,0z M0,11h2V9H0V11L0,11z M9,14h2v-2H9V14L9,14z M12,0v2h2V0H12L12,0z M12,5h2V3h-2V5
			L12,5z M12,14h2v-2h-2V14L12,14z M12,11h2V9h-2V11L12,11z"/>
		<polygon points="8,0 6,0 6,6 0,6 0,8 6,8 6,14 8,14 8,8 14,8 14,6 8,6 		"/>
	</g>
</g>
<g transform="translate(36,36)">
	<g transform="translate(2 2)">
		<path opacity="0.54" enable-background="new    " d="M6,14h2v-2H6V14L6,14z M3,2h2V0H3V2L3,2z M6,11h2V9H6V11L6,11z M3,14h2v-2H3
			V14L3,14z M0,5h2V3H0V5L0,5z M0,14h2v-2H0V14L0,14z M0,2h2V0H0V2L0,2z M0,11h2V9H0V11L0,11z M12,11h2V9h-2V11L12,11z M12,14h2v-2
			h-2V14L12,14z M12,5h2V3h-2V5L12,5z M12,0v2h2V0H12L12,0z M6,2h2V0H6V2L6,2z M9,2h2V0H9V2L9,2z M6,5h2V3H6V5L6,5z M9,14h2v-2H9V14
			L9,14z"/>
		<polygon points="0,8 14,8 14,6 0,6 		"/>
	</g>
</g>
<g transform="translate(54,36)">
	<g transform="translate(2 2)">
		<path opacity="0.54" enable-background="new    " d="M3,14h2v-2H3V14L3,14z M0,5h2V3H0V5L0,5z M0,2h2V0H0V2L0,2z M3,8h2V6H3V8L3,8
			z M3,2h2V0H3V2L3,2z M0,14h2v-2H0V14L0,14z M0,8h2V6H0V8L0,8z M0,11h2V9H0V11L0,11z M12,0v2h2V0H12L12,0z M12,8h2V6h-2V8L12,8z
			 M12,14h2v-2h-2V14L12,14z M12,5h2V3h-2V5L12,5z M12,11h2V9h-2V11L12,11z M9,14h2v-2H9V14L9,14z M9,8h2V6H9V8L9,8z M9,2h2V0H9V2
			L9,2z"/>
		<polygon points="6,14 8,14 8,0 6,0 		"/>
	</g>
</g>
<g transform="translate(72,36)">
	<g transform="translate(2 2)">
		<path opacity="0.54" enable-background="new    " d="M8,3H6v2h2V3L8,3z M11,6H9v2h2V6L11,6z M8,6H6v2h2V6L8,6z M8,9H6v2h2V9L8,9z
			 M5,6H3v2h2V6L5,6z"/>
		<path d="M0,0h14v14H0V0z M12,12V2H2v10H12z"/>
	</g>
</g>
<g transform="translate(90,36)">
	<g transform="translate(2 2)">
		<path opacity="0.54" enable-background="new    " d="M6,8h2V6H6V8L6,8z M6,5h2V3H6V5L6,5z M6,11h2V9H6V11L6,11z M6,14h2v-2H6V14
			L6,14z M3,14h2v-2H3V14L3,14z M3,2h2V0H3V2L3,2z M3,8h2V6H3V8L3,8z M12,14h2v-2h-2V14L12,14z M12,8h2V6h-2V8L12,8z M12,11h2V9h-2
			V11L12,11z M12,5h2V3h-2V5L12,5z M6,2h2V0H6V2L6,2z M12,0v2h2V0H12L12,0z M9,14h2v-2H9V14L9,14z M9,8h2V6H9V8L9,8z M9,2h2V0H9V2
			L9,2z"/>
		<polygon points="0,14 2,14 2,0 0,0 		"/>
	</g>
</g>
<g transform="translate(108,36)">
	<g transform="translate(2 2)">
		<path opacity="0.54" enable-background="new    " d="M3,8h2V6H3V8L3,8z M0,14h2v-2H0V14L0,14z M6,14h2v-2H6V14L6,14z M6,11h2V9H6
			V11L6,11z M3,14h2v-2H3V14L3,14z M0,11h2V9H0V11L0,11z M6,8h2V6H6V8L6,8z M0,5h2V3H0V5L0,5z M0,8h2V6H0V8L0,8z M12,8h2V6h-2V8
			L12,8z M12,11h2V9h-2V11L12,11z M12,5h2V3h-2V5L12,5z M6,5h2V3H6V5L6,5z M9,14h2v-2H9V14L9,14z M9,8h2V6H9V8L9,8z M12,14h2v-2h-2
			V14L12,14z"/>
		<polygon points="0,0 0,2 14,2 14,0 		"/>
	</g>
</g>
<g transform="translate(126,36)">
	<g transform="translate(2 2)">
		<path opacity="0.54" enable-background="new    " d="M0,2h2V0H0V2L0,2z M3,2h2V0H3V2L3,2z M3,8h2V6H3V8L3,8z M3,14h2v-2H3V14L3,14
			z M0,5h2V3H0V5L0,5z M0,8h2V6H0V8L0,8z M0,14h2v-2H0V14L0,14z M0,11h2V9H0V11L0,11z M9,8h2V6H9V8L9,8z M6,14h2v-2H6V14L6,14z
			 M9,14h2v-2H9V14L9,14z M6,2h2V0H6V2L6,2z M9,2h2V0H9V2L9,2z M6,11h2V9H6V11L6,11z M6,5h2V3H6V5L6,5z M6,8h2V6H6V8L6,8z"/>
		<polygon points="12,0 12,14 14,14 14,0 		"/>
	</g>
</g>
<g transform="translate(144,36)">
	<g transform="translate(2 2)">
		<path opacity="0.54" enable-background="new    " d="M5,0H3v2h2V0L5,0z M8,6H6v2h2V6L8,6z M8,9H6v2h2V9L8,9z M11,6H9v2h2V6L11,6z
			 M5,6H3v2h2V6L5,6z M11,0H9v2h2V0L11,0z M8,3H6v2h2V3L8,3z M8,0H6v2h2V0L8,0z M2,9H0v2h2V9L2,9z M12,11h2V9h-2V11L12,11z M12,5h2
			V3h-2V5L12,5z M12,8h2V6h-2V8L12,8z M12,0v2h2V0H12L12,0z M2,0H0v2h2V0L2,0z M2,3H0v2h2V3L2,3z M2,6H0v2h2V6L2,6z"/>
		<polygon points="0,14 14,14 14,12 0,12 		"/>
	</g>
</g>
<g transform="translate(162,36)">
	<path opacity="0.54" enable-background="new    " d="M8,16h2v-2H8V16L8,16z M5,10h2V8H5V10L5,10z M5,4h2V2H5V4L5,4z M8,13h2v-2H8
		V13L8,13z M5,16h2v-2H5V16L5,16z M2,7h2V5H2V7L2,7z M2,16h2v-2H2V16L2,16z M2,4h2V2H2V4L2,4z M2,10h2V8H2V10L2,10z M8,10h2V8H8V10
		L8,10z M2,13h2v-2H2V13L2,13z M14,13h2v-2h-2V13L14,13z M14,16h2v-2h-2V16L14,16z M14,10h2V8h-2V10L14,10z M14,7h2V5h-2V7L14,7z
		 M14,2v2h2V2H14L14,2z M8,4h2V2H8V4L8,4z M11,4h2V2h-2V4L11,4z M8,7h2V5H8V7L8,7z M11,16h2v-2h-2V16L11,16z M11,10h2V8h-2V10L11,10
		z"/>
</g>
<g transform="translate(180,36)">
	<path d="M10.5,3.62L4,10.12V13h2.88l6.5-6.5L10.5,3.62z M15.85,4.02c0.2-0.199,0.2-0.51,0-0.709l-2.17-2.17
		c-0.199-0.201-0.51-0.201-0.709,0L11.62,2.5l2.88,2.88L15.85,4.02L15.85,4.02z"/>
</g>
<g transform="translate(198,36)">
	<path d="M2,4h14v2H2V4z M2,8h6v2H2V8z M2,12h2v2H2V12z M10,8h6v2h-6V8z M6,12h2v2H6V12z M10,12h2v2h-2V12z M14,12h2v2h-2V12z"/>
</g>
<g transform="translate(216,36)">
	<polygon points="11,5 7,9 11,13 	"/>
</g>
<g transform="translate(234,36)">
	<polygon points="12.529,6.529 11.471,5.471 9,7.939 6.529,5.471 5.471,6.529 7.939,9 5.471,11.471 6.529,12.529 9,10.061 
		11.471,12.529 12.529,11.471 10.061,9 	"/>
</g>
<g transform="translate(0,54)">
	<polygon points="12.44,6.439 9,9.88 5.56,6.439 4.5,7.5 9,12 13.5,7.5 	"/>
</g>
<g transform="translate(18,54)">
	<polygon points="9,6 4.5,10.5 5.56,11.561 9,8.12 12.44,11.561 13.5,10.5 	"/>
</g>
<g transform="translate(36,54)">
	<polygon points="11.56,12.439 8.12,9 11.56,5.561 10.5,4.5 6,9 10.5,13.5 	"/>
</g>
<g transform="translate(54,54)">
	<polygon points="12,9 7.5,4.5 6.44,5.561 9.88,9 6.44,12.439 7.5,13.5 	"/>
</g>
<g transform="translate(72,54)">
	<polygon points="3,8 11.875,8 7.94,4.061 9,3 15,9 9,15 7.94,13.939 11.875,10 3,10 	"/>
</g>
<g transform="translate(90,54)">
	<polygon points="15,8 6.125,8 10.06,4.061 9,3 3,9 9,15 10.06,13.939 6.125,10 15,10 	"/>
</g>
<g transform="translate(0,3818)">
	<path d="M116.206-3758.89h2.61l0.517-3.11h2.836l-0.519,3.111h2.351v2.334h-2.739l-0.519,3.112H124v2.334h-3.646l-0.517,3.108H117
		l0.52-3.11h-2.61l-0.517,3.11h-2.837l0.518-3.11H110v-2.334h2.463l0.519-3.112h-2.983v-2.333h3.37l0.521-3.11h2.836
		L116.206-3758.89z M115.816-3756.556l-0.517,3.112h2.609l0.519-3.112H115.816z"/>
</g>
</svg>
